<svg xmlns="http://www.w3.org/2000/svg" viewBox="0 0 688.94 107.37"><defs><style>.\31 9c8ae20-83d7-44c4-ba35-3709ff3d6b45,.\38 4aed919-2763-4c36-a841-945beecfb1e7{fill:#fff;}.\31 9c8ae20-83d7-44c4-ba35-3709ff3d6b45,.\37 ea24774-e069-47dc-84d2-1514cb5b583f{stroke:#fff;stroke-miterlimit:10;}.\37 ea24774-e069-47dc-84d2-1514cb5b583f{fill:none;stroke-width:4px;}</style></defs><title>logo_1</title><g id="6d720403-1f2c-42c2-8ad4-31d83108c127" data-name="Слой 2"><g id="92764e28-803c-4e03-8fd0-5e9f9f0ec21e" data-name="Слой 1"><path class="19c8ae20-83d7-44c4-ba35-3709ff3d6b45" d="M50.32,16.87c0,1.62-.38,3.52-3.81,4.66-5.8,1.91-8.94,1-12.46,4.76C28.91,31.62,27.77,40.37,27.3,48c2.28-8.18,7.32-11.89,12.08-11.89,3.71,0,7.23.85,9.51,3.42,3.81,4.38,5.33,12.66,5.33,21.79,0,8.27-1.24,15.5-4,20a12.11,12.11,0,0,1-10.84,5.89c-3.9,0-7.71-1.33-10-4.28C25.68,78,24.63,69.38,24.63,58.82c0-13.41.48-27.77,7.61-34.34a17.6,17.6,0,0,1,6.19-3.71c7-1.9,9.6-1.71,9.6-3.9ZM48,79.75c2.76-4.47,3.24-11.7,3.24-18.83,0-8.28-1-15.6-4.19-19.41-1.8-2.09-4.56-2.76-7.7-2.76-7.61,0-12.08,10-12.08,22,0,8.08.95,15.88,4.18,20.17a9.66,9.66,0,0,0,7.9,3.52A10,10,0,0,0,48,79.75Z"/><path class="19c8ae20-83d7-44c4-ba35-3709ff3d6b45" d="M65.06,82.13C62.21,77.85,60.5,71,60.5,60.73c0-7.71,1-13.51,2.75-17.7,2.29-5.8,6.28-8.56,12.28-8.56,4.56,0,7.8,1.62,10.18,5,2.85,4.28,4.56,11.13,4.56,21.22,0,7.8-1,13.7-2.76,17.88-2.28,5.81-6.28,8.56-12.27,8.56C70.68,87.17,67.44,85.56,65.06,82.13ZM85.8,75.57c1-3.43,1.52-8.37,1.52-14.84q0-9.42-1.71-14.84c-1.81-5.9-5.52-9.33-10.27-9.33-4.57,0-8.28,3.43-10.09,9.33-1.23,3.8-1.8,8.75-1.8,14.84,0,6.94.47,11.7,1.33,14.84,1.61,6.09,5.42,9.51,10.37,9.51S84.09,81.66,85.8,75.57Z"/><path class="19c8ae20-83d7-44c4-ba35-3709ff3d6b45" d="M124.81,38.28H106.45v26c0,9.23-.48,14.65-2.19,18.17-1.34,2.66-3.52,4.75-6.38,4.75A10.21,10.21,0,0,1,95,86.89l-.48-2.57a4.24,4.24,0,0,0,2.1.48,5.37,5.37,0,0,0,5.23-3c1.52-3.23,1.9-9.51,1.9-19.79V36.09h23.69V86.22h-2.66Z"/><path class="19c8ae20-83d7-44c4-ba35-3709ff3d6b45" d="M163.62,59.11H139.74v4.66c0,5.9.48,10.18,1.43,13.22,1.52,5.05,5,8.09,9.51,8.09,8,0,10.28-7.32,10.28-13.7h2.66A19.69,19.69,0,0,1,160.48,82c-2.28,3.52-5.33,5.13-9.89,5.13-5.71,0-9.33-2.75-11.52-8.75-1.33-3.9-2-9.61-2-17.41s.66-13.6,1.9-17.41c2.09-6.27,5.71-9.13,11.42-9.13,4.85,0,8.18,2,10.56,6.57,1.8,3.51,2.66,8.08,2.66,14.07Zm-2.66-2c0-6.47-.48-10.37-1.43-13.22-1.52-4.76-4.95-7.33-9.23-7.33-8.37,0-10.56,10.66-10.56,20.55Z"/><path class="84aed919-2763-4c36-a841-945beecfb1e7" d="M232.52,1.71l4.38,39.47c1,8.52,1.71,21.19,2.56,30.82h.24c.74-10.48,1.59-20.83,2.56-31.19l3.9-39.1h12.91L248.84,88.44H229.35L219.6,1.71Z"/><path class="84aed919-2763-4c36-a841-945beecfb1e7" d="M278.44,77.11h16.45V88.44H265.53V1.71h12.91Z"/><path class="84aed919-2763-4c36-a841-945beecfb1e7" d="M301.59,14.62C301.59,3.29,310.48,0,318.4,0s16.93,3.29,16.93,14.62V75.53c0,11.33-8.89,14.62-16.93,14.62s-16.81-3.29-16.81-14.62ZM314.5,74.43c0,4.39,1.34,5.36,4,5.36s3.9-1,3.9-5.36V15.72c0-4.39-1.34-5.37-3.9-5.37s-4,1-4,5.37Z"/><path class="84aed919-2763-4c36-a841-945beecfb1e7" d="M365.42,33V15.72c0-4.39-1.34-5.37-3.9-5.37s-4,1-4,5.37V74.43c0,4.39,1.34,5.36,4,5.36s3.9-1,3.9-5.36V55.55H360.3V45.2h18V88.44h-6.46L371.51,83h-.24a12.44,12.44,0,0,1-11.7,7.19c-6.09,0-15-3.29-15-14.62V14.62C344.59,3.29,353.48,0,361.4,0s16.93,3.29,16.93,14.62V33Z"/><polyline class="7ea24774-e069-47dc-84d2-1514cb5b583f" points="35.04 65.73 180.19 65.73 180.19 2.54 2 2.54 2 105.37 639.42 105.37"/><polyline class="7ea24774-e069-47dc-84d2-1514cb5b583f" points="650.94 20.2 686.12 55.37 652.21 89.28"/><path class="84aed919-2763-4c36-a841-945beecfb1e7" d="M446.2,62.7c0,17.14-10.41,26.23-23.12,26.23-13.15,0-22.38-10.2-22.38-25.27,0-15.8,9.82-26.15,23.12-26.15C437.41,37.51,446.2,47.93,446.2,62.7Zm-38.63.82c0,10.63,5.76,20.16,15.88,20.16S439.4,74.3,439.4,63c0-9.9-5.17-20.24-15.88-20.24S407.57,52.58,407.57,63.52Z"/><path class="84aed919-2763-4c36-a841-945beecfb1e7" d="M454.55,38.33H461V82.72h21.28v5.39h-27.7Z"/><path class="84aed919-2763-4c36-a841-945beecfb1e7" d="M489.41,38.33h26.81v5.39H495.84V60.26h18.83v5.32H495.84V88.11h-6.43Z"/><path class="84aed919-2763-4c36-a841-945beecfb1e7" d="M551.16,64.77H531.81v18h21.57v5.39h-28V38.33h26.89v5.39H531.81V59.45h19.35Z"/><path class="84aed919-2763-4c36-a841-945beecfb1e7" d="M561.72,88.11V38.33h7l16,25.19a140.79,140.79,0,0,1,8.93,16.17l.15-.07C593.19,73,593,66.91,593,59.16V38.33h6.06V88.11h-6.5L576.79,62.85a158.2,158.2,0,0,1-9.3-16.62l-.23.07c.37,6.28.52,12.27.52,20.54V88.11Z"/><path class="84aed919-2763-4c36-a841-945beecfb1e7" d="M632.63,49.63a12.45,12.45,0,1,1-12.41-12.12A12.17,12.17,0,0,1,632.63,49.63Zm-21.79,0a9.38,9.38,0,0,0,9.46,9.67,9.27,9.27,0,0,0,9.23-9.6c0-5.39-3.91-9.75-9.31-9.75A9.42,9.42,0,0,0,610.84,49.63ZM618.3,56h-2.8V43.87a23.77,23.77,0,0,1,4.65-.37,7.63,7.63,0,0,1,4.21.88A3.35,3.35,0,0,1,625.54,47,3.1,3.1,0,0,1,623,49.85V50a3.58,3.58,0,0,1,2.22,3,9.44,9.44,0,0,0,.88,3h-3a10.26,10.26,0,0,1-1-2.95c-.22-1.33-1-1.92-2.51-1.92H618.3Zm.08-6.87h1.33c1.55,0,2.8-.52,2.8-1.77s-.81-1.85-2.58-1.85a6.85,6.85,0,0,0-1.55.15Z"/></g></g></svg>