<!-- Generator: Adobe Illustrator 19.0.0, SVG Export Plug-In  -->
<svg version="1.1"
	 xmlns="http://www.w3.org/2000/svg" xmlns:xlink="http://www.w3.org/1999/xlink" xmlns:a="http://ns.adobe.com/AdobeSVGViewerExtensions/3.0/"
	 x="0px" y="0px" width="261.3px" height="273.5px" viewBox="0 0 261.3 273.5" enable-background="new 0 0 261.3 273.5"
	 xml:space="preserve">
<defs>
</defs>
<g>
	<path fill="#FFFFFF" d="M39.4,35c-3.8,0-8.4,2.4-11.3,8.7c0.7-6.6,2.1-13.3,6.3-17.6c2.2-2.4,4.3-2.8,7.2-3.4
		c1.5-0.3,3.1-0.6,5.1-1.3c3.7-1.2,4.1-3.4,4.1-5.1v-0.5h-3.3v0.5c0,1.2-0.9,1.4-4.6,2.3c-1.3,0.3-2.8,0.7-4.7,1.2
		c-2.1,0.6-4.8,2.4-6.4,3.8c-7.2,6.6-7.8,20.8-7.8,34.7c0,12.5,1.5,20,4.9,24.4c2.2,2.8,6,4.5,10.4,4.5c4.9,0,8.9-2.2,11.3-6.1
		c2.7-4.3,4.1-11.3,4.1-20.2c0-7.2-0.9-16.9-5.5-22.1C47.1,36.3,43.8,35,39.4,35z M50.8,60.4c0,6.7-0.4,14.1-3.2,18.6
		c-1.8,2.8-4.8,4.4-8.2,4.4c-3.2,0-5.8-1.2-7.5-3.3c-2.7-3.6-4.1-10.3-4.1-19.9c0-12.6,4.8-21.5,11.6-21.5c3.5,0,5.8,0.8,7.3,2.6
		C49.4,44.5,50.8,50.8,50.8,60.4z"/>
	<path fill="#FFFFFF" d="M75.5,33.4c-6.2,0-10.4,2.9-12.7,8.9C60.9,46.8,60,52.9,60,60.2c0,9.8,1.6,17.1,4.6,21.7l0,0
		c2.5,3.6,5.9,5.3,10.6,5.3c6.2,0,10.4-2.9,12.7-8.9c1.9-4.5,2.8-10.6,2.8-18.1c0-9.6-1.6-16.9-4.7-21.5
		C83.6,35.1,80.3,33.4,75.5,33.4z M86.8,60.2c0,6.6-0.5,11.4-1.5,14.7l0,0C83.7,80.7,80,84,75.1,84c-4.7,0-8.3-3.3-9.9-9.1
		c-0.9-3.2-1.3-8.1-1.3-14.7c0-6.2,0.6-11,1.8-14.7c1.7-5.7,5.2-9,9.6-9c4.5,0,8,3.3,9.8,9C86.3,49,86.8,54,86.8,60.2z"/>
	<path fill="#FFFFFF" d="M103.3,61.4c0,9.7-0.3,16.3-1.9,19.6c-0.9,1.8-2.5,2.8-4.8,2.8c-0.8,0-1.1-0.1-1.9-0.4l-0.9-0.4l0.7,3.8
		l0.3,0.1c1.1,0.3,2,0.3,3,0.3c2.7,0,5.2-1.8,6.8-5c1.9-3.8,2.2-9.9,2.2-18.4V38.2h17.4v47.9h3.7V35h-24.7V61.4z"/>
	<path fill="#FFFFFF" d="M164.1,59.1v-4.5c0-6.1-0.9-10.7-2.7-14.3c-2.4-4.7-5.9-6.8-11-6.8c-6,0-9.7,3-11.9,9.5
		c-1.3,3.9-1.9,9.8-1.9,17.6c0,7.8,0.7,13.6,2,17.6c2.3,6.2,6.1,9.1,12,9.1c4.7,0,7.9-1.7,10.3-5.4c2-3,3.2-7.1,3.2-10.9v-0.5h-3.7
		v0.5c0,4-1,13.2-9.8,13.2c-4.2,0-7.6-2.9-9-7.7c-0.9-3-1.4-7.3-1.4-13.1v-4.2H164.1z M140.2,56.1c0.1-7.5,1.5-19.5,10.1-19.5
		c4.1,0,7.3,2.5,8.8,7c0.9,2.8,1.4,6.7,1.4,12.6H140.2z"/>
</g>
<g>
	<g>
		<path fill="#FFFFFF" d="M38.4,100.7l4.7,42.1c1,9.1,1.8,22.6,2.7,32.8h0.3c0.8-11.2,1.7-22.2,2.7-33.2l4.2-41.7h13.8l-10.9,92.4
			H35l-10.4-92.4H38.4z"/>
	</g>
	<g>
		<path fill="#FFFFFF" d="M87.3,181h17.5v12.1H73.6v-92.4h13.8V181z"/>
	</g>
	<g>
		<path fill="#FFFFFF" d="M112,114.4c0-12.1,9.5-15.6,17.9-15.6c8.6,0,18,3.5,18,15.6v64.9c0,12.1-9.5,15.6-18,15.6
			c-8.4,0-17.9-3.5-17.9-15.6V114.4z M125.8,178.2c0,4.7,1.4,5.7,4.3,5.7c2.7,0,4.2-1,4.2-5.7v-62.6c0-4.7-1.4-5.7-4.2-5.7
			c-2.9,0-4.3,1-4.3,5.7V178.2z"/>
	</g>
	<g>
		<path fill="#FFFFFF" d="M180,134v-18.4c0-4.7-1.4-5.7-4.2-5.7c-2.9,0-4.3,1-4.3,5.7v62.6c0,4.7,1.4,5.7,4.3,5.7
			c2.7,0,4.2-1,4.2-5.7v-20.1h-5.5v-11h19.2v46.1h-6.9l-0.4-5.8h-0.3c-2.5,5.1-7,7.7-12.5,7.7c-6.5,0-16-3.5-16-15.6v-64.9
			c0-12.1,9.5-15.6,17.9-15.6c8.6,0,18,3.5,18,15.6V134H180z"/>
	</g>
</g>
<g>
	<g>
		<polygon fill="#FFFFFF" points="193.9,273.5 0,273.5 0,0 194.4,0 194.4,67.2 37.3,67.2 37.3,63.2 190.4,63.2 190.4,4 4,4 4,269.5 
			193.9,269.5 		"/>
	</g>
</g>
<g>
	<g>
		<polygon fill="#FFFFFF" points="225.9,272.9 223.1,270.1 255.6,237.6 221.8,203.8 224.7,201 261.3,237.6 		"/>
	</g>
</g>
<g>
	<g>
		<path fill="#FFFFFF" d="M52.2,235.3c0,10.1-6.1,15.4-13.6,15.4c-7.7,0-13.1-6-13.1-14.8c0-9.3,5.8-15.3,13.6-15.3
			C47.1,220.6,52.2,226.7,52.2,235.3z M29.6,235.8c0,6.2,3.4,11.8,9.3,11.8c6,0,9.4-5.5,9.4-12.1c0-5.8-3-11.9-9.3-11.9
			C32.7,223.6,29.6,229.4,29.6,235.8z"/>
	</g>
	<g>
		<path fill="#FFFFFF" d="M57.1,221h3.8v26h12.5v3.2H57.1V221z"/>
	</g>
	<g>
		<path fill="#FFFFFF" d="M77.6,221h15.7v3.2h-12v9.7h11v3.1h-11v13.2h-3.8V221z"/>
	</g>
	<g>
		<path fill="#FFFFFF" d="M113.8,236.5h-11.4v10.5h12.6v3.2H98.7V221h15.8v3.2h-12v9.2h11.4V236.5z"/>
	</g>
	<g>
		<path fill="#FFFFFF" d="M120,250.2V221h4.1l9.4,14.8c2.2,3.4,3.9,6.5,5.2,9.5l0.1,0c-0.3-3.9-0.4-7.5-0.4-12V221h3.6v29.2h-3.8
			l-9.3-14.8c-2-3.2-4-6.6-5.5-9.7l-0.1,0c0.2,3.7,0.3,7.2,0.3,12v12.5H120z"/>
	</g>
	<g>
		<path fill="#FFFFFF" d="M161.6,227.7c0,4-3.2,7.2-7.3,7.2c-4.1,0-7.3-3.2-7.3-7.2c0-3.9,3.2-7.1,7.3-7.1
			C158.4,220.6,161.6,223.7,161.6,227.7z M148.8,227.7c0,3.2,2.3,5.7,5.5,5.7c3.1,0,5.4-2.5,5.4-5.6c0-3.2-2.3-5.7-5.5-5.7
			C151.1,222,148.8,224.5,148.8,227.7z M153.2,231.4h-1.6v-7.1c0.7-0.1,1.6-0.2,2.7-0.2c1.3,0,1.9,0.2,2.5,0.5
			c0.4,0.3,0.7,0.9,0.7,1.6c0,0.8-0.6,1.4-1.5,1.6v0.1c0.7,0.3,1.1,0.8,1.3,1.7c0.2,1.1,0.3,1.5,0.5,1.8H156
			c-0.2-0.3-0.3-0.9-0.6-1.7c-0.1-0.8-0.6-1.1-1.5-1.1h-0.8V231.4z M153.2,227.4h0.8c0.9,0,1.6-0.3,1.6-1c0-0.7-0.5-1.1-1.5-1.1
			c-0.4,0-0.7,0-0.9,0.1V227.4z"/>
	</g>
</g>
</svg>
